<?xml version="1.0" encoding="utf-8"?><svg xml:space="preserve" viewBox="0 0 100 100" y="0" x="0" xmlns="http://www.w3.org/2000/svg" id="Layer_1" version="1.1" width="128px" height="128px" xmlns:xlink="http://www.w3.org/1999/xlink" style="width:100%;height:100%;animation-play-state:paused" ><g class="ldl-scale" style="transform-origin:50% 50% 0px;transform:scale(0.8);animation-play-state:paused" ><path fill="#f7b26a" d="M91.5 39.5C80.9 29.1 66.4 22.7 50.3 22.7c-6.3 0-12.4 1-18.2 2.9.9-.6 1.8-1.1 2.8-1.7 12.3-7 25.8-9.8 38.9-8.9 8.7 5.6 15.1 14.3 17.7 24.5z" style="fill:rgb(37, 10, 112);animation-play-state:paused" ></path>
<path fill="#f47e5f" d="M31.4 11.9c-7.4 10.8-11.7 23.9-11.7 38 0 1.1 0 2.2.1 3.2 1.2-5.8 3.4-11.6 6.6-17.1 8-13.8 20.9-23.1 35.3-27-10.3-2.8-21.1-1.6-30.3 2.9z" style="fill:rgb(231, 106, 36);animation-play-state:paused" ></path>
<path fill="#e15c64" d="M7.5 47c5.7 11.8 15 22 27.2 29.1.9.5 1.9 1.1 2.9 1.6-4.5-4-8.4-8.7-11.6-14.2-8-13.8-9.7-29.5-5.9-43.9C12.5 26.9 8.2 36.7 7.5 47z" style="fill:rgb(1, 8, 10);animation-play-state:paused" ></path>
<path fill="#f7b26a" d="M26.1 85c13.1 1 26.7-1.8 38.9-8.9.9-.5 1.9-1.1 2.8-1.7-5.7 1.9-11.8 2.9-18.2 2.9-16.1 0-30.6-6.4-41.2-16.8 2.7 10.2 9.1 18.9 17.7 24.5z" style="fill:rgb(37, 10, 112);animation-play-state:paused" ></path>
<path fill="#f47e5f" d="M68.6 88.1c7.4-10.8 11.7-23.9 11.7-38 0-1.1 0-2.2-.1-3.2-1.2 5.8-3.4 11.6-6.6 17.1-8 13.8-20.9 23.1-35.3 27 10.3 2.8 21.1 1.6 30.3-2.9z" style="fill:rgb(231, 106, 36);animation-play-state:paused" ></path>
<path fill="#e15c64" d="M92.5 53c-5.7-11.8-15-22-27.2-29.1-.9-.5-1.9-1.1-2.9-1.6 4.5 4 8.4 8.7 11.6 14.2 8 13.8 9.7 29.5 5.9 43.9 7.6-7.3 11.9-17.1 12.6-27.4z" style="fill:rgb(1, 8, 10);animation-play-state:paused" ></path>
<metadata xmlns:d="https://loading.io/stock/" style="animation-play-state:paused" ><d:name style="animation-play-state:paused" >spiral</d:name>
<d:tags style="animation-play-state:paused" >aperture,vortex,spiral,spinner,rotate,preloader,wrap,spiral,spinner</d:tags>
<d:license style="animation-play-state:paused" >by</d:license>
<d:slug style="animation-play-state:paused" >eifnb2</d:slug></metadata></g><!-- generated by https://loading.io/ --></svg>